<svg width="149" height="130" viewBox="0 0 149 130" fill="none" xmlns="http://www.w3.org/2000/svg">
<g filter="url(#filter0_di_403_164)">
<circle cx="123" cy="100" r="20" fill="#3F581F"/>
<circle cx="123" cy="100" r="21" stroke="#6CB77D" stroke-width="2"/>
</g>
<rect x="114.538" y="106.923" width="5.38462" height="5.38462" transform="rotate(90 114.538 106.923)" fill="#ABA22A"/>
<rect x="109.154" y="104.615" width="1.53846" height="1.53846" transform="rotate(90 109.154 104.615)" fill="#ABA22A"/>
<rect x="123.769" y="97.6923" width="3.38983" height="3.38983" transform="rotate(90 123.769 97.6923)" fill="#ABA22A"/>
<rect x="122.231" y="98.4615" width="5.38462" height="4.61538" transform="rotate(90 122.231 98.4615)" fill="#ABA22A"/>
<rect x="118.385" y="96.1539" width="5.38462" height="5.38462" transform="rotate(90 118.385 96.1539)" fill="#ABA22A"/>
<rect x="118.385" y="103.077" width="3.84615" height="6.15385" transform="rotate(90 118.385 103.077)" fill="#ABA22A"/>
<rect x="135.308" y="95.3846" width="10" height="3.84615" transform="rotate(90 135.308 95.3846)" fill="#ABA22A"/>
<rect x="136.846" y="93.0769" width="3.84615" height="3.84615" transform="rotate(90 136.846 93.0769)" fill="#ABA22A"/>
<rect x="133" y="91.5385" width="2.30769" height="3.07692" transform="rotate(90 133 91.5385)" fill="#ABA22A"/>
<rect x="129.923" y="86.1539" width="3.07692" height="3.07692" transform="rotate(90 129.923 86.1539)" fill="#ABA22A"/>
<rect x="131.462" y="93.0769" width="6.15385" height="3.07692" transform="rotate(90 131.462 93.0769)" fill="#ABA22A"/>
<rect x="130.692" y="93.8462" width="5.38462" height="4.61538" transform="rotate(90 130.692 93.8462)" fill="#ABA22A"/>
<rect x="131.462" y="99.2308" width="4.61538" height="4.61538" transform="rotate(90 131.462 99.2308)" fill="#ABA22A"/>
<rect x="126.077" y="95.3846" width="3.07692" height="2.30769" transform="rotate(90 126.077 95.3846)" fill="#ABA22A"/>
<rect x="126.846" y="97.6923" width="3.07692" height="2.30769" transform="rotate(90 126.846 97.6923)" fill="#ABA22A"/>
<rect x="135.308" y="88.4615" width="5.38462" height="5.38462" transform="rotate(90 135.308 88.4615)" fill="#ABA22A"/>
<g style="mix-blend-mode:hard-light">
<circle cx="123" cy="100" r="20" fill="url(#paint0_radial_403_164)"/>
</g>
<g filter="url(#filter1_di_403_164)">
<circle cx="78" cy="61" r="59" fill="#46A7BF"/>
<circle cx="78" cy="61" r="60" stroke="#98D2DB" stroke-width="2"/>
</g>
<rect x="102" y="60" width="15" height="15" fill="#34A844"/>
<rect x="87" y="60" width="8" height="8" fill="#34A844"/>
<rect x="103" y="44" width="10" height="10" fill="#34A844"/>
<rect x="91" y="53" width="15" height="15" fill="#34A844"/>
<rect x="82" y="106" width="5" height="5" fill="#34A844"/>
<rect x="78" y="87" width="11" height="11" fill="#34A844"/>
<rect x="89" y="91" width="16" height="16" fill="#34A844"/>
<rect x="42" y="26" width="11" height="14" fill="#34A844"/>
<rect x="63" y="60" width="15" height="14" fill="#34A844"/>
<rect x="54" y="75" width="7" height="7" fill="#34A844"/>
<rect x="54" y="47" width="18" height="10" fill="#34A844"/>
<rect x="54" y="49" width="12" height="11" fill="#34A844"/>
<rect x="43" y="53" width="12" height="11" fill="#34A844"/>
<rect x="49" y="31" width="16" height="16" fill="#34A844"/>
<rect x="55" y="40" width="16" height="16" fill="#34A844"/>
<g style="mix-blend-mode:hard-light">
<circle cx="78" cy="61" r="59" fill="url(#paint1_radial_403_164)"/>
</g>
<g filter="url(#filter2_di_403_164)">
<circle cx="32" cy="29" r="26" fill="#842524"/>
<circle cx="32" cy="29" r="27" stroke="#C19292" stroke-width="2"/>
</g>
<rect x="38" y="42" width="7" height="7" fill="#D2621D"/>
<rect x="35" y="49" width="2" height="2" fill="#D2621D"/>
<rect x="26" y="30" width="4.40678" height="4.40678" fill="#D2621D"/>
<rect x="27" y="32" width="7" height="6" fill="#D2621D"/>
<rect x="24" y="37" width="7" height="7" fill="#D2621D"/>
<rect x="33" y="37" width="5" height="8" fill="#D2621D"/>
<rect x="31" y="9" width="13" height="5" fill="#D2621D"/>
<rect x="28" y="7" width="5" height="5" fill="#D2621D"/>
<rect x="26" y="12" width="3" height="4" fill="#D2621D"/>
<rect x="19" y="16" width="4" height="4" fill="#D2621D"/>
<rect x="28" y="14" width="8" height="4" fill="#D2621D"/>
<rect x="29" y="15" width="7" height="6" fill="#D2621D"/>
<rect x="36" y="14" width="6" height="6" fill="#D2621D"/>
<rect x="31" y="21" width="4" height="3" fill="#D2621D"/>
<rect x="34" y="20" width="4" height="3" fill="#D2621D"/>
<rect x="23" y="20" width="7" height="7" fill="#D2621D"/>
<g style="mix-blend-mode:hard-light">
<circle cx="32" cy="29" r="26" fill="url(#paint2_radial_403_164)"/>
</g>
<path d="M42.8086 60.8906V42.3255L48.1955 57.3409L48.4331 58.0032H49.1367H55.7539H56.4628L56.6975 57.3343L62.082 41.9854V60.8906V61.8906H63.082H69.8906H70.8906V60.8906V26V25H69.8906H60.0195H59.291L59.0677 25.6934L52.4453 46.2545L45.8229 25.6934L45.5996 25H44.8711H35H34V26V60.8906V61.8906H35H41.8086H42.8086V60.8906Z" fill="black" stroke="white" stroke-width="2"/>
<path d="M83.0606 96.2783L83.0637 96.2812C87.4614 100.368 92.8963 102.4 99.3006 102.4C106.717 102.4 112.594 100.36 116.783 96.1515L116.786 96.1484C120.971 91.9071 123 85.9784 123 78.508V72.246C123 64.8527 121.311 58.9825 117.797 54.7731C114.294 50.5006 109.332 48.4053 103.057 48.4053C101.116 48.4053 99.1481 48.7133 97.1566 49.3215L97.1516 49.323C95.9604 49.6937 94.8903 50.1628 93.9512 50.737V40.5504H119.778H120.778V39.5504V26V25H119.778H78.4532H77.4532V26V68.9097V69.9097H78.4532H91.9987H92.7389L92.9551 69.2019C93.4605 67.5474 94.3417 66.3038 95.5889 65.417C96.8775 64.5257 98.451 64.0584 100.359 64.0584C102.387 64.0584 103.838 64.7526 104.857 66.0797L104.857 66.0798L104.863 66.088C105.908 67.4199 106.502 69.4255 106.502 72.246V78.508C106.502 81.2601 105.836 83.2759 104.627 84.6829L104.626 84.6845C103.478 86.0261 101.824 86.7469 99.5123 86.7469C97.424 86.7469 95.8103 86.0829 94.5757 84.7998C93.3297 83.471 92.5295 81.5779 92.258 79.0204V78.0212H91.258H76.76H75.76V79.0212V79.0726V79.1074L75.7624 79.1421C76.2693 86.4126 78.6718 92.1653 83.0606 96.2783Z" fill="#BA3E3E" stroke="white" stroke-width="2"/>
<path d="M49.2103 101.756L49.4557 102.4H50.1447H55.8152H56.5041L56.7496 101.756L69.5743 68.1162L70.0914 66.76H68.6399H61.1677H60.468L60.2282 67.4173L52.9799 87.2844L45.7317 67.4173L45.4919 66.76H44.7922H37.3199H35.8685L36.3855 68.1162L49.2103 101.756Z" fill="black" stroke="white" stroke-width="2"/>
<defs>
<filter id="filter0_di_403_164" x="97" y="77" width="52" height="53" filterUnits="userSpaceOnUse" color-interpolation-filters="sRGB">
<feFlood flood-opacity="0" result="BackgroundImageFix"/>
<feColorMatrix in="SourceAlpha" type="matrix" values="0 0 0 0 0 0 0 0 0 0 0 0 0 0 0 0 0 0 127 0" result="hardAlpha"/>
<feOffset dy="4"/>
<feGaussianBlur stdDeviation="2"/>
<feComposite in2="hardAlpha" operator="out"/>
<feColorMatrix type="matrix" values="0 0 0 0 0 0 0 0 0 0 0 0 0 0 0 0 0 0 0.25 0"/>
<feBlend mode="normal" in2="BackgroundImageFix" result="effect1_dropShadow_403_164"/>
<feBlend mode="normal" in="SourceGraphic" in2="effect1_dropShadow_403_164" result="shape"/>
<feColorMatrix in="SourceAlpha" type="matrix" values="0 0 0 0 0 0 0 0 0 0 0 0 0 0 0 0 0 0 127 0" result="hardAlpha"/>
<feOffset dx="-1" dy="-1"/>
<feGaussianBlur stdDeviation="2"/>
<feComposite in2="hardAlpha" operator="arithmetic" k2="-1" k3="1"/>
<feColorMatrix type="matrix" values="0 0 0 0 0 0 0 0 0 0 0 0 0 0 0 0 0 0 0.5 0"/>
<feBlend mode="normal" in2="shape" result="effect2_innerShadow_403_164"/>
</filter>
<filter id="filter1_di_403_164" x="16" y="-1" width="131" height="131" filterUnits="userSpaceOnUse" color-interpolation-filters="sRGB">
<feFlood flood-opacity="0" result="BackgroundImageFix"/>
<feColorMatrix in="SourceAlpha" type="matrix" values="0 0 0 0 0 0 0 0 0 0 0 0 0 0 0 0 0 0 127 0" result="hardAlpha"/>
<feOffset dx="4" dy="4"/>
<feGaussianBlur stdDeviation="2"/>
<feComposite in2="hardAlpha" operator="out"/>
<feColorMatrix type="matrix" values="0 0 0 0 0 0 0 0 0 0 0 0 0 0 0 0 0 0 0.25 0"/>
<feBlend mode="normal" in2="BackgroundImageFix" result="effect1_dropShadow_403_164"/>
<feBlend mode="normal" in="SourceGraphic" in2="effect1_dropShadow_403_164" result="shape"/>
<feColorMatrix in="SourceAlpha" type="matrix" values="0 0 0 0 0 0 0 0 0 0 0 0 0 0 0 0 0 0 127 0" result="hardAlpha"/>
<feOffset dx="-1" dy="-1"/>
<feGaussianBlur stdDeviation="2"/>
<feComposite in2="hardAlpha" operator="arithmetic" k2="-1" k3="1"/>
<feColorMatrix type="matrix" values="0 0 0 0 0 0 0 0 0 0 0 0 0 0 0 0 0 0 0.5 0"/>
<feBlend mode="normal" in2="shape" result="effect2_innerShadow_403_164"/>
</filter>
<filter id="filter2_di_403_164" x="0" y="0" width="64" height="65" filterUnits="userSpaceOnUse" color-interpolation-filters="sRGB">
<feFlood flood-opacity="0" result="BackgroundImageFix"/>
<feColorMatrix in="SourceAlpha" type="matrix" values="0 0 0 0 0 0 0 0 0 0 0 0 0 0 0 0 0 0 127 0" result="hardAlpha"/>
<feOffset dy="4"/>
<feGaussianBlur stdDeviation="2"/>
<feComposite in2="hardAlpha" operator="out"/>
<feColorMatrix type="matrix" values="0 0 0 0 0 0 0 0 0 0 0 0 0 0 0 0 0 0 0.25 0"/>
<feBlend mode="normal" in2="BackgroundImageFix" result="effect1_dropShadow_403_164"/>
<feBlend mode="normal" in="SourceGraphic" in2="effect1_dropShadow_403_164" result="shape"/>
<feColorMatrix in="SourceAlpha" type="matrix" values="0 0 0 0 0 0 0 0 0 0 0 0 0 0 0 0 0 0 127 0" result="hardAlpha"/>
<feOffset dx="-1" dy="-1"/>
<feGaussianBlur stdDeviation="2"/>
<feComposite in2="hardAlpha" operator="arithmetic" k2="-1" k3="1"/>
<feColorMatrix type="matrix" values="0 0 0 0 0 0 0 0 0 0 0 0 0 0 0 0 0 0 0.5 0"/>
<feBlend mode="normal" in2="shape" result="effect2_innerShadow_403_164"/>
</filter>
<radialGradient id="paint0_radial_403_164" cx="0" cy="0" r="1" gradientUnits="userSpaceOnUse" gradientTransform="translate(111.644 84.4068) rotate(54.2215) scale(38.6242)">
<stop stop-color="white" stop-opacity="0.85"/>
<stop offset="1" stop-opacity="0.55"/>
</radialGradient>
<radialGradient id="paint1_radial_403_164" cx="0" cy="0" r="1" gradientUnits="userSpaceOnUse" gradientTransform="translate(44.5 15) rotate(54.2215) scale(113.941)">
<stop stop-color="white" stop-opacity="0.75"/>
<stop offset="1" stop-color="#2C2C2C" stop-opacity="0.45"/>
</radialGradient>
<radialGradient id="paint2_radial_403_164" cx="0" cy="0" r="1" gradientUnits="userSpaceOnUse" gradientTransform="translate(17.2373 8.72881) rotate(54.2215) scale(50.2114)">
<stop stop-color="white" stop-opacity="0.65"/>
<stop offset="1" stop-opacity="0.55"/>
</radialGradient>
</defs>
</svg>
