<svg width="546" height="130" viewBox="0 0 546 130" fill="none" xmlns="http://www.w3.org/2000/svg">
<g filter="url(#filter0_di_403_242)">
<circle cx="123" cy="100" r="20" fill="#3F581F"/>
<circle cx="123" cy="100" r="21" stroke="#6CB77D" stroke-width="2"/>
</g>
<rect x="114.538" y="106.923" width="5.38462" height="5.38462" transform="rotate(90 114.538 106.923)" fill="#ABA22A"/>
<rect x="109.154" y="104.615" width="1.53846" height="1.53846" transform="rotate(90 109.154 104.615)" fill="#ABA22A"/>
<rect x="123.769" y="97.6923" width="3.38983" height="3.38983" transform="rotate(90 123.769 97.6923)" fill="#ABA22A"/>
<rect x="122.231" y="98.4615" width="5.38462" height="4.61538" transform="rotate(90 122.231 98.4615)" fill="#ABA22A"/>
<rect x="118.385" y="96.1538" width="5.38462" height="5.38462" transform="rotate(90 118.385 96.1538)" fill="#ABA22A"/>
<rect x="118.385" y="103.077" width="3.84615" height="6.15385" transform="rotate(90 118.385 103.077)" fill="#ABA22A"/>
<rect x="135.308" y="95.3846" width="10" height="3.84615" transform="rotate(90 135.308 95.3846)" fill="#ABA22A"/>
<rect x="136.846" y="93.0769" width="3.84615" height="3.84615" transform="rotate(90 136.846 93.0769)" fill="#ABA22A"/>
<rect x="133" y="91.5385" width="2.30769" height="3.07692" transform="rotate(90 133 91.5385)" fill="#ABA22A"/>
<rect x="129.923" y="86.1538" width="3.07692" height="3.07692" transform="rotate(90 129.923 86.1538)" fill="#ABA22A"/>
<rect x="131.462" y="93.0769" width="6.15385" height="3.07692" transform="rotate(90 131.462 93.0769)" fill="#ABA22A"/>
<rect x="130.692" y="93.8462" width="5.38462" height="4.61538" transform="rotate(90 130.692 93.8462)" fill="#ABA22A"/>
<rect x="131.462" y="99.2308" width="4.61538" height="4.61538" transform="rotate(90 131.462 99.2308)" fill="#ABA22A"/>
<rect x="126.077" y="95.3846" width="3.07692" height="2.30769" transform="rotate(90 126.077 95.3846)" fill="#ABA22A"/>
<rect x="126.846" y="97.6923" width="3.07692" height="2.30769" transform="rotate(90 126.846 97.6923)" fill="#ABA22A"/>
<rect x="135.308" y="88.4615" width="5.38462" height="5.38462" transform="rotate(90 135.308 88.4615)" fill="#ABA22A"/>
<g style="mix-blend-mode:hard-light">
<circle cx="123" cy="100" r="20" fill="url(#paint0_radial_403_242)"/>
</g>
<g filter="url(#filter1_di_403_242)">
<circle cx="78" cy="61" r="59" fill="#46A7BF"/>
<circle cx="78" cy="61" r="60" stroke="#98D2DB" stroke-width="2"/>
</g>
<rect x="102" y="60" width="15" height="15" fill="#34A844"/>
<rect x="87" y="60" width="8" height="8" fill="#34A844"/>
<rect x="103" y="44" width="10" height="10" fill="#34A844"/>
<rect x="91" y="53" width="15" height="15" fill="#34A844"/>
<rect x="82" y="106" width="5" height="5" fill="#34A844"/>
<rect x="78" y="87" width="11" height="11" fill="#34A844"/>
<rect x="89" y="91" width="16" height="16" fill="#34A844"/>
<rect x="42" y="26" width="11" height="14" fill="#34A844"/>
<rect x="63" y="60" width="15" height="14" fill="#34A844"/>
<rect x="54" y="75" width="7" height="7" fill="#34A844"/>
<rect x="54" y="47" width="18" height="10" fill="#34A844"/>
<rect x="54" y="49" width="12" height="11" fill="#34A844"/>
<rect x="43" y="53" width="12" height="11" fill="#34A844"/>
<rect x="49" y="31" width="16" height="16" fill="#34A844"/>
<rect x="55" y="40" width="16" height="16" fill="#34A844"/>
<g style="mix-blend-mode:hard-light">
<circle cx="78" cy="61" r="59" fill="url(#paint1_radial_403_242)"/>
</g>
<g filter="url(#filter2_di_403_242)">
<circle cx="32" cy="54" r="26" fill="#842524"/>
<circle cx="32" cy="54" r="27" stroke="#C19292" stroke-width="2"/>
</g>
<rect x="38" y="67" width="7" height="7" fill="#D2621D"/>
<rect x="35" y="74" width="2" height="2" fill="#D2621D"/>
<rect x="26" y="55" width="4.40678" height="4.40678" fill="#D2621D"/>
<rect x="27" y="57" width="7" height="6" fill="#D2621D"/>
<rect x="24" y="62" width="7" height="7" fill="#D2621D"/>
<rect x="33" y="62" width="5" height="8" fill="#D2621D"/>
<rect x="31" y="34" width="13" height="5" fill="#D2621D"/>
<rect x="28" y="32" width="5" height="5" fill="#D2621D"/>
<rect x="26" y="37" width="3" height="4" fill="#D2621D"/>
<rect x="19" y="41" width="4" height="4" fill="#D2621D"/>
<rect x="28" y="39" width="8" height="4" fill="#D2621D"/>
<rect x="29" y="40" width="7" height="6" fill="#D2621D"/>
<rect x="36" y="39" width="6" height="6" fill="#D2621D"/>
<rect x="31" y="46" width="4" height="3" fill="#D2621D"/>
<rect x="34" y="45" width="4" height="3" fill="#D2621D"/>
<rect x="23" y="45" width="7" height="7" fill="#D2621D"/>
<g style="mix-blend-mode:hard-light">
<circle cx="32" cy="54" r="26" fill="url(#paint2_radial_403_242)"/>
</g>
<path d="M516.898 99C508.984 99 502.336 96.8012 496.954 92.4037C491.618 88.0061 488.633 81.8148 488 73.8298V73.772H506.587V73.8298C506.949 76.9158 508.057 79.3268 509.911 81.0626C511.765 82.7599 514.185 83.6086 517.17 83.6086C520.426 83.6086 522.936 82.7021 524.699 80.889C526.508 79.0374 527.413 76.4722 527.413 73.1933V66.1341C527.413 62.8167 526.621 60.2707 525.039 58.4963C523.456 56.6832 521.195 55.7767 518.255 55.7767C515.587 55.7767 513.303 56.3553 511.404 57.5126C509.549 58.6698 508.26 60.29 507.537 62.373H490.171V14H543.151V29.2757H508.758V44.1464C510.205 42.9505 512.127 42.0247 514.524 41.369C516.966 40.7132 519.363 40.3853 521.715 40.3853C529.448 40.3853 535.418 42.6419 539.623 47.1552C543.874 51.6299 546 57.9562 546 66.1341V73.1933C546 81.4098 543.467 87.7747 538.402 92.2879C533.337 96.7626 526.169 99 516.898 99Z" fill="#2F9FBB"/>
<mask id="path-58-outside-1_403_242" maskUnits="userSpaceOnUse" x="256.665" y="89" width="222" height="12" fill="black">
<rect fill="white" x="256.665" y="89" width="222" height="12"/>
<path d="M259.841 98.9191V91.7224H261.347V98.9191H259.841ZM257.665 92.504V91.0809H263.524V92.504H257.665Z"/>
<path d="M268.778 98.9191V91.0809H270.284V98.9191H268.778ZM264.403 98.9191V91.0809H265.909V98.9191H264.403ZM265.101 95.7439V94.3208H269.757V95.7439H265.101Z"/>
<path d="M272.043 98.9191V91.0809H273.549V98.9191H272.043ZM272.587 98.9191V97.496H277.396V98.9191H272.587ZM272.587 95.7385V94.3154H276.792V95.7385H272.587ZM272.587 92.504V91.0809H277.396V92.504H272.587Z"/>
<path d="M282.453 98.9191V97.496H285.003C285.348 97.496 285.613 97.4151 285.8 97.2534C285.991 97.0881 286.086 96.858 286.086 96.5633V96.5472C286.086 96.2489 285.991 96.0189 285.8 95.8571C285.613 95.6918 285.348 95.6092 285.003 95.6092H282.453V94.186H285.003C285.315 94.186 285.555 94.1087 285.723 93.9542C285.896 93.7996 285.982 93.5822 285.982 93.3019C285.982 93.0467 285.896 92.8509 285.723 92.7143C285.555 92.5741 285.315 92.504 285.003 92.504H282.453V91.0809H285.053C285.83 91.0809 286.43 91.2659 286.856 91.6361C287.284 92.0063 287.499 92.5292 287.499 93.2049C287.499 93.6613 287.361 94.0386 287.086 94.3369C286.815 94.6316 286.43 94.8203 285.932 94.903C286.463 94.9748 286.874 95.1743 287.163 95.5013C287.456 95.8248 287.603 96.2471 287.603 96.7682V96.7844C287.603 97.4636 287.389 97.9901 286.96 98.3639C286.531 98.7341 285.927 98.9191 285.146 98.9191H282.453ZM281.793 98.9191V91.0809H283.299V98.9191H281.793Z"/>
<path d="M291.698 99C290.771 99 290.053 98.7466 289.543 98.2399C289.038 97.7296 288.785 97.0108 288.785 96.0836V91.0809H290.291V96.1213C290.291 96.5705 290.413 96.9191 290.659 97.1671C290.904 97.4151 291.251 97.5391 291.698 97.5391C292.148 97.5391 292.497 97.4151 292.742 97.1671C292.991 96.9191 293.116 96.5705 293.116 96.1213V91.0809H294.622V96.0836C294.622 97.0108 294.367 97.7296 293.858 98.2399C293.348 98.7466 292.628 99 291.698 99Z"/>
<path d="M297.26 97.7763L297.068 95.8571L300.272 91.0809H302.168L297.26 97.7763ZM296.161 98.9191V91.0809H297.667V98.9191H296.161ZM300.717 98.9191L298.398 94.9515L299.695 94.1482L302.503 98.9191H300.717Z"/>
<path d="M304.592 97.7763L304.4 95.8571L307.604 91.0809H309.5L304.592 97.7763ZM303.493 98.9191V91.0809H304.999V98.9191H303.493ZM308.049 98.9191L305.73 94.9515L307.027 94.1482L309.836 98.9191H308.049Z"/>
<path d="M312.276 91.0809V98.9191H310.715V91.0809H312.276Z"/>
<path d="M315.442 98.9191V91.7224H316.948V98.9191H315.442ZM313.265 92.504V91.0809H319.124V92.504H313.265Z"/>
<path d="M324.56 96.31L326.088 91.0809H327.297L328.825 96.31L329.853 91.0809H331.403L329.562 98.9191H328.144L326.726 93.442L325.242 98.9191H323.824L321.982 91.0809H323.532L324.56 96.31Z"/>
<path d="M334.981 99C334.395 99 333.882 98.8814 333.442 98.6442C333.006 98.4034 332.667 98.0656 332.425 97.6307C332.184 97.1959 332.063 96.6891 332.063 96.1105V93.8895C332.063 93.3073 332.184 92.8005 332.425 92.3693C332.667 91.9344 333.006 91.5984 333.442 91.3612C333.882 91.1204 334.395 91 334.981 91C335.567 91 336.079 91.1204 336.515 91.3612C336.954 91.5984 337.295 91.9344 337.537 92.3693C337.779 92.8005 337.9 93.3073 337.9 93.8895V96.1105C337.9 96.6891 337.779 97.1959 337.537 97.6307C337.295 98.0656 336.954 98.4034 336.515 98.6442C336.079 98.8814 335.567 99 334.981 99ZM334.981 97.5229C335.392 97.5229 335.719 97.3971 335.965 97.1456C336.214 96.894 336.339 96.5615 336.339 96.1482V93.8518C336.339 93.4349 336.214 93.1024 335.965 92.8544C335.719 92.6029 335.392 92.4771 334.981 92.4771C334.571 92.4771 334.241 92.6029 333.992 92.8544C333.746 93.1024 333.624 93.4349 333.624 93.8518V96.1482C333.624 96.5615 333.746 96.894 333.992 97.1456C334.241 97.3971 334.571 97.5229 334.981 97.5229Z"/>
<path d="M339.983 95.7655V94.3423H342.764C342.998 94.3423 343.185 94.2579 343.325 94.0889C343.467 93.92 343.541 93.6972 343.544 93.4205C343.544 93.1438 343.473 92.9209 343.33 92.752C343.191 92.5831 343.002 92.4987 342.764 92.4987H339.983V91.0755H342.885C343.328 91.0755 343.715 91.1725 344.045 91.3666C344.378 91.5606 344.636 91.8338 344.82 92.186C345.003 92.5382 345.094 92.9497 345.094 93.4205C345.094 93.8913 345.001 94.3028 344.814 94.655C344.631 95.0072 344.374 95.2803 344.045 95.4744C343.715 95.6685 343.328 95.7655 342.885 95.7655H339.983ZM339.384 98.9191V91.0755H340.89V98.9191H339.384ZM343.605 98.9191L341.665 95.5229L343.275 95.2749L345.43 98.9191H343.605Z"/>
<path d="M346.727 98.9191V91.0809H348.233V98.9191H346.727ZM347.397 98.9191V97.496H352.08V98.9191H347.397Z"/>
<path d="M353.938 98.9191V97.496H355.856C356.351 97.496 356.734 97.3792 357.005 97.1456C357.276 96.9084 357.412 96.5777 357.412 96.1536V93.8464C357.412 93.4187 357.276 93.0881 357.005 92.8544C356.734 92.6208 356.351 92.504 355.856 92.504H353.938V91.0809H355.823C356.827 91.0809 357.602 91.327 358.148 91.8194C358.698 92.3082 358.972 92.9982 358.972 93.8895V96.1105C358.972 96.6676 358.855 97.1581 358.621 97.5822C358.386 98.0027 358.034 98.3315 357.565 98.5687C357.1 98.8023 356.517 98.9191 355.818 98.9191H353.938ZM353.179 98.9191V91.0809H354.685V98.9191H353.179Z"/>
<path d="M367.096 96.3639L368.618 91.0809H370.603V98.9191H369.234V92.8329L369.289 93.1779L367.761 98.0458H366.431L364.903 93.2857L364.958 92.8329V98.9191H363.589V91.0809H365.574L367.096 96.3639Z"/>
<path d="M371.482 98.9191L374.538 91.0809H375.494L378.55 98.9191H376.929L375.016 93.566L373.103 98.9191H371.482ZM372.95 97.6631V96.2399H377.154V97.6631H372.95Z"/>
<path d="M379.54 98.9137V91.0809H381.381L384.354 97.0863L384.222 97.2264V91.0809H385.663V98.9137H383.81L380.848 93L380.98 92.8598V98.9137H379.54Z"/>
<path d="M386.542 98.9191L389.598 91.0809H390.554L393.61 98.9191H391.989L390.076 93.566L388.163 98.9191H386.542ZM388.009 97.6631V96.2399H392.214V97.6631H388.009Z"/>
<path d="M397.073 94.5364H399.843V96.0674C399.843 96.6568 399.722 97.1725 399.48 97.6146C399.238 98.053 398.899 98.3944 398.463 98.6388C398.031 98.8796 397.522 99 396.935 99C396.345 99 395.829 98.8868 395.385 98.6604C394.946 98.4304 394.603 98.1087 394.358 97.6954C394.116 97.2785 393.995 96.7934 393.995 96.2399V93.9272C393.995 93.3378 394.116 92.8239 394.358 92.3854C394.599 91.947 394.937 91.6074 395.369 91.3666C395.805 91.1222 396.316 91 396.902 91C397.386 91 397.826 91.097 398.222 91.2911C398.621 91.4852 398.956 91.7565 399.227 92.1051C399.499 92.4537 399.682 92.8616 399.777 93.3288H398.15C398.069 93.0737 397.908 92.8778 397.666 92.7412C397.428 92.6011 397.174 92.531 396.902 92.531C396.496 92.531 396.17 92.6586 395.924 92.9137C395.679 93.1689 395.556 93.5067 395.556 93.9272V96.2399C395.556 96.6101 395.682 96.9084 395.935 97.1348C396.188 97.3576 396.521 97.469 396.935 97.469C397.342 97.469 397.668 97.3486 397.914 97.1078C398.159 96.8634 398.282 96.5238 398.282 96.0889V95.9596H397.073V94.5364Z"/>
<path d="M401.327 98.9191V91.0809H402.833V98.9191H401.327ZM401.871 98.9191V97.496H406.68V98.9191H401.871ZM401.871 95.7385V94.3154H406.076V95.7385H401.871ZM401.871 92.504V91.0809H406.68V92.504H401.871Z"/>
<path d="M411.561 96.3639L413.084 91.0809H415.068V98.9191H413.699V92.8329L413.754 93.1779L412.226 98.0458H410.896L409.368 93.2857L409.423 92.8329V98.9191H408.054V91.0809H410.039L411.561 96.3639Z"/>
<path d="M416.827 98.9191V91.0809H418.333V98.9191H416.827ZM417.371 98.9191V97.496H422.18V98.9191H417.371ZM417.371 95.7385V94.3154H421.575V95.7385H417.371ZM417.371 92.504V91.0809H422.18V92.504H417.371Z"/>
<path d="M423.554 98.9137V91.0809H425.395L428.369 97.0863L428.237 97.2264V91.0809H429.677V98.9137H427.825L424.862 93L424.994 92.8598V98.9137H423.554Z"/>
<path d="M432.953 98.9191V91.7224H434.459V98.9191H432.953ZM430.776 92.504V91.0809H436.635V92.504H430.776Z"/>
<path d="M441.005 95.8787V94.4555H443.561C443.832 94.4555 444.052 94.3675 444.22 94.1914C444.389 94.0117 444.473 93.7763 444.473 93.4852C444.473 93.1869 444.389 92.9497 444.22 92.7736C444.055 92.5939 443.835 92.504 443.561 92.504H441.005V91.0809H443.522C444.028 91.0809 444.467 91.1815 444.841 91.3827C445.219 91.5804 445.512 91.8589 445.721 92.2183C445.929 92.5777 446.034 93 446.034 93.4852C446.034 93.9668 445.929 94.3872 445.721 94.7466C445.512 95.106 445.219 95.3845 444.841 95.5822C444.464 95.7799 444.024 95.8787 443.522 95.8787H441.005ZM440.318 98.9191V91.0809H441.824V98.9191H440.318Z"/>
<path d="M447.221 98.9191V91.0809H448.727V98.9191H447.221ZM447.892 98.9191V97.496H452.574V98.9191H447.892Z"/>
<path d="M456.257 99C455.33 99 454.612 98.7466 454.102 98.2399C453.597 97.7296 453.344 97.0108 453.344 96.0836V91.0809H454.85V96.1213C454.85 96.5705 454.973 96.9191 455.218 97.1671C455.464 97.4151 455.81 97.5391 456.257 97.5391C456.708 97.5391 457.056 97.4151 457.301 97.1671C457.55 96.9191 457.675 96.5705 457.675 96.1213V91.0809H459.181V96.0836C459.181 97.0108 458.926 97.7296 458.417 98.2399C457.908 98.7466 457.188 99 456.257 99Z"/>
<path d="M463.523 94.5364H466.293V96.0674C466.293 96.6568 466.172 97.1725 465.93 97.6146C465.689 98.053 465.35 98.3944 464.914 98.6388C464.481 98.8796 463.972 99 463.386 99C462.796 99 462.279 98.8868 461.836 98.6604C461.396 98.4304 461.053 98.1087 460.808 97.6954C460.566 97.2785 460.445 96.7934 460.445 96.2399V93.9272C460.445 93.3378 460.566 92.8239 460.808 92.3854C461.05 91.947 461.387 91.6074 461.819 91.3666C462.255 91.1222 462.766 91 463.353 91C463.836 91 464.276 91.097 464.672 91.2911C465.071 91.4852 465.406 91.7565 465.678 92.1051C465.949 92.4537 466.132 92.8616 466.227 93.3288H464.6C464.52 93.0737 464.359 92.8778 464.117 92.7412C463.879 92.6011 463.624 92.531 463.353 92.531C462.946 92.531 462.62 92.6586 462.374 92.9137C462.129 93.1689 462.006 93.5067 462.006 93.9272V96.2399C462.006 96.6101 462.133 96.9084 462.385 97.1348C462.638 97.3576 462.972 97.469 463.386 97.469C463.792 97.469 464.119 97.3486 464.364 97.1078C464.61 96.8634 464.732 96.5238 464.732 96.0889V95.9596H463.523V94.5364Z"/>
<path d="M469.228 91.0809V98.9191H467.667V91.0809H469.228Z"/>
<path d="M470.877 98.9137V91.0809H472.718L475.692 97.0863L475.56 97.2264V91.0809H477V98.9137H475.148L472.185 93L472.317 92.8598V98.9137H470.877Z"/>
</mask>
<path d="M259.841 98.9191V91.7224H261.347V98.9191H259.841ZM257.665 92.504V91.0809H263.524V92.504H257.665Z" fill="black"/>
<path d="M268.778 98.9191V91.0809H270.284V98.9191H268.778ZM264.403 98.9191V91.0809H265.909V98.9191H264.403ZM265.101 95.7439V94.3208H269.757V95.7439H265.101Z" fill="black"/>
<path d="M272.043 98.9191V91.0809H273.549V98.9191H272.043ZM272.587 98.9191V97.496H277.396V98.9191H272.587ZM272.587 95.7385V94.3154H276.792V95.7385H272.587ZM272.587 92.504V91.0809H277.396V92.504H272.587Z" fill="black"/>
<path d="M282.453 98.9191V97.496H285.003C285.348 97.496 285.613 97.4151 285.8 97.2534C285.991 97.0881 286.086 96.858 286.086 96.5633V96.5472C286.086 96.2489 285.991 96.0189 285.8 95.8571C285.613 95.6918 285.348 95.6092 285.003 95.6092H282.453V94.186H285.003C285.315 94.186 285.555 94.1087 285.723 93.9542C285.896 93.7996 285.982 93.5822 285.982 93.3019C285.982 93.0467 285.896 92.8509 285.723 92.7143C285.555 92.5741 285.315 92.504 285.003 92.504H282.453V91.0809H285.053C285.83 91.0809 286.43 91.2659 286.856 91.6361C287.284 92.0063 287.499 92.5292 287.499 93.2049C287.499 93.6613 287.361 94.0386 287.086 94.3369C286.815 94.6316 286.43 94.8203 285.932 94.903C286.463 94.9748 286.874 95.1743 287.163 95.5013C287.456 95.8248 287.603 96.2471 287.603 96.7682V96.7844C287.603 97.4636 287.389 97.9901 286.96 98.3639C286.531 98.7341 285.927 98.9191 285.146 98.9191H282.453ZM281.793 98.9191V91.0809H283.299V98.9191H281.793Z" fill="black"/>
<path d="M291.698 99C290.771 99 290.053 98.7466 289.543 98.2399C289.038 97.7296 288.785 97.0108 288.785 96.0836V91.0809H290.291V96.1213C290.291 96.5705 290.413 96.9191 290.659 97.1671C290.904 97.4151 291.251 97.5391 291.698 97.5391C292.148 97.5391 292.497 97.4151 292.742 97.1671C292.991 96.9191 293.116 96.5705 293.116 96.1213V91.0809H294.622V96.0836C294.622 97.0108 294.367 97.7296 293.858 98.2399C293.348 98.7466 292.628 99 291.698 99Z" fill="black"/>
<path d="M297.26 97.7763L297.068 95.8571L300.272 91.0809H302.168L297.26 97.7763ZM296.161 98.9191V91.0809H297.667V98.9191H296.161ZM300.717 98.9191L298.398 94.9515L299.695 94.1482L302.503 98.9191H300.717Z" fill="black"/>
<path d="M304.592 97.7763L304.4 95.8571L307.604 91.0809H309.5L304.592 97.7763ZM303.493 98.9191V91.0809H304.999V98.9191H303.493ZM308.049 98.9191L305.73 94.9515L307.027 94.1482L309.836 98.9191H308.049Z" fill="black"/>
<path d="M312.276 91.0809V98.9191H310.715V91.0809H312.276Z" fill="black"/>
<path d="M315.442 98.9191V91.7224H316.948V98.9191H315.442ZM313.265 92.504V91.0809H319.124V92.504H313.265Z" fill="black"/>
<path d="M324.56 96.31L326.088 91.0809H327.297L328.825 96.31L329.853 91.0809H331.403L329.562 98.9191H328.144L326.726 93.442L325.242 98.9191H323.824L321.982 91.0809H323.532L324.56 96.31Z" fill="black"/>
<path d="M334.981 99C334.395 99 333.882 98.8814 333.442 98.6442C333.006 98.4034 332.667 98.0656 332.425 97.6307C332.184 97.1959 332.063 96.6891 332.063 96.1105V93.8895C332.063 93.3073 332.184 92.8005 332.425 92.3693C332.667 91.9344 333.006 91.5984 333.442 91.3612C333.882 91.1204 334.395 91 334.981 91C335.567 91 336.079 91.1204 336.515 91.3612C336.954 91.5984 337.295 91.9344 337.537 92.3693C337.779 92.8005 337.9 93.3073 337.9 93.8895V96.1105C337.9 96.6891 337.779 97.1959 337.537 97.6307C337.295 98.0656 336.954 98.4034 336.515 98.6442C336.079 98.8814 335.567 99 334.981 99ZM334.981 97.5229C335.392 97.5229 335.719 97.3971 335.965 97.1456C336.214 96.894 336.339 96.5615 336.339 96.1482V93.8518C336.339 93.4349 336.214 93.1024 335.965 92.8544C335.719 92.6029 335.392 92.4771 334.981 92.4771C334.571 92.4771 334.241 92.6029 333.992 92.8544C333.746 93.1024 333.624 93.4349 333.624 93.8518V96.1482C333.624 96.5615 333.746 96.894 333.992 97.1456C334.241 97.3971 334.571 97.5229 334.981 97.5229Z" fill="black"/>
<path d="M339.983 95.7655V94.3423H342.764C342.998 94.3423 343.185 94.2579 343.325 94.0889C343.467 93.92 343.541 93.6972 343.544 93.4205C343.544 93.1438 343.473 92.9209 343.33 92.752C343.191 92.5831 343.002 92.4987 342.764 92.4987H339.983V91.0755H342.885C343.328 91.0755 343.715 91.1725 344.045 91.3666C344.378 91.5606 344.636 91.8338 344.82 92.186C345.003 92.5382 345.094 92.9497 345.094 93.4205C345.094 93.8913 345.001 94.3028 344.814 94.655C344.631 95.0072 344.374 95.2803 344.045 95.4744C343.715 95.6685 343.328 95.7655 342.885 95.7655H339.983ZM339.384 98.9191V91.0755H340.89V98.9191H339.384ZM343.605 98.9191L341.665 95.5229L343.275 95.2749L345.43 98.9191H343.605Z" fill="black"/>
<path d="M346.727 98.9191V91.0809H348.233V98.9191H346.727ZM347.397 98.9191V97.496H352.08V98.9191H347.397Z" fill="black"/>
<path d="M353.938 98.9191V97.496H355.856C356.351 97.496 356.734 97.3792 357.005 97.1456C357.276 96.9084 357.412 96.5777 357.412 96.1536V93.8464C357.412 93.4187 357.276 93.0881 357.005 92.8544C356.734 92.6208 356.351 92.504 355.856 92.504H353.938V91.0809H355.823C356.827 91.0809 357.602 91.327 358.148 91.8194C358.698 92.3082 358.972 92.9982 358.972 93.8895V96.1105C358.972 96.6676 358.855 97.1581 358.621 97.5822C358.386 98.0027 358.034 98.3315 357.565 98.5687C357.1 98.8023 356.517 98.9191 355.818 98.9191H353.938ZM353.179 98.9191V91.0809H354.685V98.9191H353.179Z" fill="black"/>
<path d="M367.096 96.3639L368.618 91.0809H370.603V98.9191H369.234V92.8329L369.289 93.1779L367.761 98.0458H366.431L364.903 93.2857L364.958 92.8329V98.9191H363.589V91.0809H365.574L367.096 96.3639Z" fill="black"/>
<path d="M371.482 98.9191L374.538 91.0809H375.494L378.55 98.9191H376.929L375.016 93.566L373.103 98.9191H371.482ZM372.95 97.6631V96.2399H377.154V97.6631H372.95Z" fill="black"/>
<path d="M379.54 98.9137V91.0809H381.381L384.354 97.0863L384.222 97.2264V91.0809H385.663V98.9137H383.81L380.848 93L380.98 92.8598V98.9137H379.54Z" fill="black"/>
<path d="M386.542 98.9191L389.598 91.0809H390.554L393.61 98.9191H391.989L390.076 93.566L388.163 98.9191H386.542ZM388.009 97.6631V96.2399H392.214V97.6631H388.009Z" fill="black"/>
<path d="M397.073 94.5364H399.843V96.0674C399.843 96.6568 399.722 97.1725 399.48 97.6146C399.238 98.053 398.899 98.3944 398.463 98.6388C398.031 98.8796 397.522 99 396.935 99C396.345 99 395.829 98.8868 395.385 98.6604C394.946 98.4304 394.603 98.1087 394.358 97.6954C394.116 97.2785 393.995 96.7934 393.995 96.2399V93.9272C393.995 93.3378 394.116 92.8239 394.358 92.3854C394.599 91.947 394.937 91.6074 395.369 91.3666C395.805 91.1222 396.316 91 396.902 91C397.386 91 397.826 91.097 398.222 91.2911C398.621 91.4852 398.956 91.7565 399.227 92.1051C399.499 92.4537 399.682 92.8616 399.777 93.3288H398.15C398.069 93.0737 397.908 92.8778 397.666 92.7412C397.428 92.6011 397.174 92.531 396.902 92.531C396.496 92.531 396.17 92.6586 395.924 92.9137C395.679 93.1689 395.556 93.5067 395.556 93.9272V96.2399C395.556 96.6101 395.682 96.9084 395.935 97.1348C396.188 97.3576 396.521 97.469 396.935 97.469C397.342 97.469 397.668 97.3486 397.914 97.1078C398.159 96.8634 398.282 96.5238 398.282 96.0889V95.9596H397.073V94.5364Z" fill="black"/>
<path d="M401.327 98.9191V91.0809H402.833V98.9191H401.327ZM401.871 98.9191V97.496H406.68V98.9191H401.871ZM401.871 95.7385V94.3154H406.076V95.7385H401.871ZM401.871 92.504V91.0809H406.68V92.504H401.871Z" fill="black"/>
<path d="M411.561 96.3639L413.084 91.0809H415.068V98.9191H413.699V92.8329L413.754 93.1779L412.226 98.0458H410.896L409.368 93.2857L409.423 92.8329V98.9191H408.054V91.0809H410.039L411.561 96.3639Z" fill="black"/>
<path d="M416.827 98.9191V91.0809H418.333V98.9191H416.827ZM417.371 98.9191V97.496H422.18V98.9191H417.371ZM417.371 95.7385V94.3154H421.575V95.7385H417.371ZM417.371 92.504V91.0809H422.18V92.504H417.371Z" fill="black"/>
<path d="M423.554 98.9137V91.0809H425.395L428.369 97.0863L428.237 97.2264V91.0809H429.677V98.9137H427.825L424.862 93L424.994 92.8598V98.9137H423.554Z" fill="black"/>
<path d="M432.953 98.9191V91.7224H434.459V98.9191H432.953ZM430.776 92.504V91.0809H436.635V92.504H430.776Z" fill="black"/>
<path d="M441.005 95.8787V94.4555H443.561C443.832 94.4555 444.052 94.3675 444.22 94.1914C444.389 94.0117 444.473 93.7763 444.473 93.4852C444.473 93.1869 444.389 92.9497 444.22 92.7736C444.055 92.5939 443.835 92.504 443.561 92.504H441.005V91.0809H443.522C444.028 91.0809 444.467 91.1815 444.841 91.3827C445.219 91.5804 445.512 91.8589 445.721 92.2183C445.929 92.5777 446.034 93 446.034 93.4852C446.034 93.9668 445.929 94.3872 445.721 94.7466C445.512 95.106 445.219 95.3845 444.841 95.5822C444.464 95.7799 444.024 95.8787 443.522 95.8787H441.005ZM440.318 98.9191V91.0809H441.824V98.9191H440.318Z" fill="black"/>
<path d="M447.221 98.9191V91.0809H448.727V98.9191H447.221ZM447.892 98.9191V97.496H452.574V98.9191H447.892Z" fill="black"/>
<path d="M456.257 99C455.33 99 454.612 98.7466 454.102 98.2399C453.597 97.7296 453.344 97.0108 453.344 96.0836V91.0809H454.85V96.1213C454.85 96.5705 454.973 96.9191 455.218 97.1671C455.464 97.4151 455.81 97.5391 456.257 97.5391C456.708 97.5391 457.056 97.4151 457.301 97.1671C457.55 96.9191 457.675 96.5705 457.675 96.1213V91.0809H459.181V96.0836C459.181 97.0108 458.926 97.7296 458.417 98.2399C457.908 98.7466 457.188 99 456.257 99Z" fill="black"/>
<path d="M463.523 94.5364H466.293V96.0674C466.293 96.6568 466.172 97.1725 465.93 97.6146C465.689 98.053 465.35 98.3944 464.914 98.6388C464.481 98.8796 463.972 99 463.386 99C462.796 99 462.279 98.8868 461.836 98.6604C461.396 98.4304 461.053 98.1087 460.808 97.6954C460.566 97.2785 460.445 96.7934 460.445 96.2399V93.9272C460.445 93.3378 460.566 92.8239 460.808 92.3854C461.05 91.947 461.387 91.6074 461.819 91.3666C462.255 91.1222 462.766 91 463.353 91C463.836 91 464.276 91.097 464.672 91.2911C465.071 91.4852 465.406 91.7565 465.678 92.1051C465.949 92.4537 466.132 92.8616 466.227 93.3288H464.6C464.52 93.0737 464.359 92.8778 464.117 92.7412C463.879 92.6011 463.624 92.531 463.353 92.531C462.946 92.531 462.62 92.6586 462.374 92.9137C462.129 93.1689 462.006 93.5067 462.006 93.9272V96.2399C462.006 96.6101 462.133 96.9084 462.385 97.1348C462.638 97.3576 462.972 97.469 463.386 97.469C463.792 97.469 464.119 97.3486 464.364 97.1078C464.61 96.8634 464.732 96.5238 464.732 96.0889V95.9596H463.523V94.5364Z" fill="black"/>
<path d="M469.228 91.0809V98.9191H467.667V91.0809H469.228Z" fill="black"/>
<path d="M470.877 98.9137V91.0809H472.718L475.692 97.0863L475.56 97.2264V91.0809H477V98.9137H475.148L472.185 93L472.317 92.8598V98.9137H470.877Z" fill="black"/>
<path d="M259.841 98.9191V91.7224H261.347V98.9191H259.841ZM257.665 92.504V91.0809H263.524V92.504H257.665Z" stroke="white" stroke-width="2" mask="url(#path-58-outside-1_403_242)"/>
<path d="M268.778 98.9191V91.0809H270.284V98.9191H268.778ZM264.403 98.9191V91.0809H265.909V98.9191H264.403ZM265.101 95.7439V94.3208H269.757V95.7439H265.101Z" stroke="white" stroke-width="2" mask="url(#path-58-outside-1_403_242)"/>
<path d="M272.043 98.9191V91.0809H273.549V98.9191H272.043ZM272.587 98.9191V97.496H277.396V98.9191H272.587ZM272.587 95.7385V94.3154H276.792V95.7385H272.587ZM272.587 92.504V91.0809H277.396V92.504H272.587Z" stroke="white" stroke-width="2" mask="url(#path-58-outside-1_403_242)"/>
<path d="M282.453 98.9191V97.496H285.003C285.348 97.496 285.613 97.4151 285.8 97.2534C285.991 97.0881 286.086 96.858 286.086 96.5633V96.5472C286.086 96.2489 285.991 96.0189 285.8 95.8571C285.613 95.6918 285.348 95.6092 285.003 95.6092H282.453V94.186H285.003C285.315 94.186 285.555 94.1087 285.723 93.9542C285.896 93.7996 285.982 93.5822 285.982 93.3019C285.982 93.0467 285.896 92.8509 285.723 92.7143C285.555 92.5741 285.315 92.504 285.003 92.504H282.453V91.0809H285.053C285.83 91.0809 286.43 91.2659 286.856 91.6361C287.284 92.0063 287.499 92.5292 287.499 93.2049C287.499 93.6613 287.361 94.0386 287.086 94.3369C286.815 94.6316 286.43 94.8203 285.932 94.903C286.463 94.9748 286.874 95.1743 287.163 95.5013C287.456 95.8248 287.603 96.2471 287.603 96.7682V96.7844C287.603 97.4636 287.389 97.9901 286.96 98.3639C286.531 98.7341 285.927 98.9191 285.146 98.9191H282.453ZM281.793 98.9191V91.0809H283.299V98.9191H281.793Z" stroke="white" stroke-width="2" mask="url(#path-58-outside-1_403_242)"/>
<path d="M291.698 99C290.771 99 290.053 98.7466 289.543 98.2399C289.038 97.7296 288.785 97.0108 288.785 96.0836V91.0809H290.291V96.1213C290.291 96.5705 290.413 96.9191 290.659 97.1671C290.904 97.4151 291.251 97.5391 291.698 97.5391C292.148 97.5391 292.497 97.4151 292.742 97.1671C292.991 96.9191 293.116 96.5705 293.116 96.1213V91.0809H294.622V96.0836C294.622 97.0108 294.367 97.7296 293.858 98.2399C293.348 98.7466 292.628 99 291.698 99Z" stroke="white" stroke-width="2" mask="url(#path-58-outside-1_403_242)"/>
<path d="M297.26 97.7763L297.068 95.8571L300.272 91.0809H302.168L297.26 97.7763ZM296.161 98.9191V91.0809H297.667V98.9191H296.161ZM300.717 98.9191L298.398 94.9515L299.695 94.1482L302.503 98.9191H300.717Z" stroke="white" stroke-width="2" mask="url(#path-58-outside-1_403_242)"/>
<path d="M304.592 97.7763L304.4 95.8571L307.604 91.0809H309.5L304.592 97.7763ZM303.493 98.9191V91.0809H304.999V98.9191H303.493ZM308.049 98.9191L305.73 94.9515L307.027 94.1482L309.836 98.9191H308.049Z" stroke="white" stroke-width="2" mask="url(#path-58-outside-1_403_242)"/>
<path d="M312.276 91.0809V98.9191H310.715V91.0809H312.276Z" stroke="white" stroke-width="2" mask="url(#path-58-outside-1_403_242)"/>
<path d="M315.442 98.9191V91.7224H316.948V98.9191H315.442ZM313.265 92.504V91.0809H319.124V92.504H313.265Z" stroke="white" stroke-width="2" mask="url(#path-58-outside-1_403_242)"/>
<path d="M324.56 96.31L326.088 91.0809H327.297L328.825 96.31L329.853 91.0809H331.403L329.562 98.9191H328.144L326.726 93.442L325.242 98.9191H323.824L321.982 91.0809H323.532L324.56 96.31Z" stroke="white" stroke-width="2" mask="url(#path-58-outside-1_403_242)"/>
<path d="M334.981 99C334.395 99 333.882 98.8814 333.442 98.6442C333.006 98.4034 332.667 98.0656 332.425 97.6307C332.184 97.1959 332.063 96.6891 332.063 96.1105V93.8895C332.063 93.3073 332.184 92.8005 332.425 92.3693C332.667 91.9344 333.006 91.5984 333.442 91.3612C333.882 91.1204 334.395 91 334.981 91C335.567 91 336.079 91.1204 336.515 91.3612C336.954 91.5984 337.295 91.9344 337.537 92.3693C337.779 92.8005 337.9 93.3073 337.9 93.8895V96.1105C337.9 96.6891 337.779 97.1959 337.537 97.6307C337.295 98.0656 336.954 98.4034 336.515 98.6442C336.079 98.8814 335.567 99 334.981 99ZM334.981 97.5229C335.392 97.5229 335.719 97.3971 335.965 97.1456C336.214 96.894 336.339 96.5615 336.339 96.1482V93.8518C336.339 93.4349 336.214 93.1024 335.965 92.8544C335.719 92.6029 335.392 92.4771 334.981 92.4771C334.571 92.4771 334.241 92.6029 333.992 92.8544C333.746 93.1024 333.624 93.4349 333.624 93.8518V96.1482C333.624 96.5615 333.746 96.894 333.992 97.1456C334.241 97.3971 334.571 97.5229 334.981 97.5229Z" stroke="white" stroke-width="2" mask="url(#path-58-outside-1_403_242)"/>
<path d="M339.983 95.7655V94.3423H342.764C342.998 94.3423 343.185 94.2579 343.325 94.0889C343.467 93.92 343.541 93.6972 343.544 93.4205C343.544 93.1438 343.473 92.9209 343.33 92.752C343.191 92.5831 343.002 92.4987 342.764 92.4987H339.983V91.0755H342.885C343.328 91.0755 343.715 91.1725 344.045 91.3666C344.378 91.5606 344.636 91.8338 344.82 92.186C345.003 92.5382 345.094 92.9497 345.094 93.4205C345.094 93.8913 345.001 94.3028 344.814 94.655C344.631 95.0072 344.374 95.2803 344.045 95.4744C343.715 95.6685 343.328 95.7655 342.885 95.7655H339.983ZM339.384 98.9191V91.0755H340.89V98.9191H339.384ZM343.605 98.9191L341.665 95.5229L343.275 95.2749L345.43 98.9191H343.605Z" stroke="white" stroke-width="2" mask="url(#path-58-outside-1_403_242)"/>
<path d="M346.727 98.9191V91.0809H348.233V98.9191H346.727ZM347.397 98.9191V97.496H352.08V98.9191H347.397Z" stroke="white" stroke-width="2" mask="url(#path-58-outside-1_403_242)"/>
<path d="M353.938 98.9191V97.496H355.856C356.351 97.496 356.734 97.3792 357.005 97.1456C357.276 96.9084 357.412 96.5777 357.412 96.1536V93.8464C357.412 93.4187 357.276 93.0881 357.005 92.8544C356.734 92.6208 356.351 92.504 355.856 92.504H353.938V91.0809H355.823C356.827 91.0809 357.602 91.327 358.148 91.8194C358.698 92.3082 358.972 92.9982 358.972 93.8895V96.1105C358.972 96.6676 358.855 97.1581 358.621 97.5822C358.386 98.0027 358.034 98.3315 357.565 98.5687C357.1 98.8023 356.517 98.9191 355.818 98.9191H353.938ZM353.179 98.9191V91.0809H354.685V98.9191H353.179Z" stroke="white" stroke-width="2" mask="url(#path-58-outside-1_403_242)"/>
<path d="M367.096 96.3639L368.618 91.0809H370.603V98.9191H369.234V92.8329L369.289 93.1779L367.761 98.0458H366.431L364.903 93.2857L364.958 92.8329V98.9191H363.589V91.0809H365.574L367.096 96.3639Z" stroke="white" stroke-width="2" mask="url(#path-58-outside-1_403_242)"/>
<path d="M371.482 98.9191L374.538 91.0809H375.494L378.55 98.9191H376.929L375.016 93.566L373.103 98.9191H371.482ZM372.95 97.6631V96.2399H377.154V97.6631H372.95Z" stroke="white" stroke-width="2" mask="url(#path-58-outside-1_403_242)"/>
<path d="M379.54 98.9137V91.0809H381.381L384.354 97.0863L384.222 97.2264V91.0809H385.663V98.9137H383.81L380.848 93L380.98 92.8598V98.9137H379.54Z" stroke="white" stroke-width="2" mask="url(#path-58-outside-1_403_242)"/>
<path d="M386.542 98.9191L389.598 91.0809H390.554L393.61 98.9191H391.989L390.076 93.566L388.163 98.9191H386.542ZM388.009 97.6631V96.2399H392.214V97.6631H388.009Z" stroke="white" stroke-width="2" mask="url(#path-58-outside-1_403_242)"/>
<path d="M397.073 94.5364H399.843V96.0674C399.843 96.6568 399.722 97.1725 399.48 97.6146C399.238 98.053 398.899 98.3944 398.463 98.6388C398.031 98.8796 397.522 99 396.935 99C396.345 99 395.829 98.8868 395.385 98.6604C394.946 98.4304 394.603 98.1087 394.358 97.6954C394.116 97.2785 393.995 96.7934 393.995 96.2399V93.9272C393.995 93.3378 394.116 92.8239 394.358 92.3854C394.599 91.947 394.937 91.6074 395.369 91.3666C395.805 91.1222 396.316 91 396.902 91C397.386 91 397.826 91.097 398.222 91.2911C398.621 91.4852 398.956 91.7565 399.227 92.1051C399.499 92.4537 399.682 92.8616 399.777 93.3288H398.15C398.069 93.0737 397.908 92.8778 397.666 92.7412C397.428 92.6011 397.174 92.531 396.902 92.531C396.496 92.531 396.17 92.6586 395.924 92.9137C395.679 93.1689 395.556 93.5067 395.556 93.9272V96.2399C395.556 96.6101 395.682 96.9084 395.935 97.1348C396.188 97.3576 396.521 97.469 396.935 97.469C397.342 97.469 397.668 97.3486 397.914 97.1078C398.159 96.8634 398.282 96.5238 398.282 96.0889V95.9596H397.073V94.5364Z" stroke="white" stroke-width="2" mask="url(#path-58-outside-1_403_242)"/>
<path d="M401.327 98.9191V91.0809H402.833V98.9191H401.327ZM401.871 98.9191V97.496H406.68V98.9191H401.871ZM401.871 95.7385V94.3154H406.076V95.7385H401.871ZM401.871 92.504V91.0809H406.68V92.504H401.871Z" stroke="white" stroke-width="2" mask="url(#path-58-outside-1_403_242)"/>
<path d="M411.561 96.3639L413.084 91.0809H415.068V98.9191H413.699V92.8329L413.754 93.1779L412.226 98.0458H410.896L409.368 93.2857L409.423 92.8329V98.9191H408.054V91.0809H410.039L411.561 96.3639Z" stroke="white" stroke-width="2" mask="url(#path-58-outside-1_403_242)"/>
<path d="M416.827 98.9191V91.0809H418.333V98.9191H416.827ZM417.371 98.9191V97.496H422.18V98.9191H417.371ZM417.371 95.7385V94.3154H421.575V95.7385H417.371ZM417.371 92.504V91.0809H422.18V92.504H417.371Z" stroke="white" stroke-width="2" mask="url(#path-58-outside-1_403_242)"/>
<path d="M423.554 98.9137V91.0809H425.395L428.369 97.0863L428.237 97.2264V91.0809H429.677V98.9137H427.825L424.862 93L424.994 92.8598V98.9137H423.554Z" stroke="white" stroke-width="2" mask="url(#path-58-outside-1_403_242)"/>
<path d="M432.953 98.9191V91.7224H434.459V98.9191H432.953ZM430.776 92.504V91.0809H436.635V92.504H430.776Z" stroke="white" stroke-width="2" mask="url(#path-58-outside-1_403_242)"/>
<path d="M441.005 95.8787V94.4555H443.561C443.832 94.4555 444.052 94.3675 444.22 94.1914C444.389 94.0117 444.473 93.7763 444.473 93.4852C444.473 93.1869 444.389 92.9497 444.22 92.7736C444.055 92.5939 443.835 92.504 443.561 92.504H441.005V91.0809H443.522C444.028 91.0809 444.467 91.1815 444.841 91.3827C445.219 91.5804 445.512 91.8589 445.721 92.2183C445.929 92.5777 446.034 93 446.034 93.4852C446.034 93.9668 445.929 94.3872 445.721 94.7466C445.512 95.106 445.219 95.3845 444.841 95.5822C444.464 95.7799 444.024 95.8787 443.522 95.8787H441.005ZM440.318 98.9191V91.0809H441.824V98.9191H440.318Z" stroke="white" stroke-width="2" mask="url(#path-58-outside-1_403_242)"/>
<path d="M447.221 98.9191V91.0809H448.727V98.9191H447.221ZM447.892 98.9191V97.496H452.574V98.9191H447.892Z" stroke="white" stroke-width="2" mask="url(#path-58-outside-1_403_242)"/>
<path d="M456.257 99C455.33 99 454.612 98.7466 454.102 98.2399C453.597 97.7296 453.344 97.0108 453.344 96.0836V91.0809H454.85V96.1213C454.85 96.5705 454.973 96.9191 455.218 97.1671C455.464 97.4151 455.81 97.5391 456.257 97.5391C456.708 97.5391 457.056 97.4151 457.301 97.1671C457.55 96.9191 457.675 96.5705 457.675 96.1213V91.0809H459.181V96.0836C459.181 97.0108 458.926 97.7296 458.417 98.2399C457.908 98.7466 457.188 99 456.257 99Z" stroke="white" stroke-width="2" mask="url(#path-58-outside-1_403_242)"/>
<path d="M463.523 94.5364H466.293V96.0674C466.293 96.6568 466.172 97.1725 465.93 97.6146C465.689 98.053 465.35 98.3944 464.914 98.6388C464.481 98.8796 463.972 99 463.386 99C462.796 99 462.279 98.8868 461.836 98.6604C461.396 98.4304 461.053 98.1087 460.808 97.6954C460.566 97.2785 460.445 96.7934 460.445 96.2399V93.9272C460.445 93.3378 460.566 92.8239 460.808 92.3854C461.05 91.947 461.387 91.6074 461.819 91.3666C462.255 91.1222 462.766 91 463.353 91C463.836 91 464.276 91.097 464.672 91.2911C465.071 91.4852 465.406 91.7565 465.678 92.1051C465.949 92.4537 466.132 92.8616 466.227 93.3288H464.6C464.52 93.0737 464.359 92.8778 464.117 92.7412C463.879 92.6011 463.624 92.531 463.353 92.531C462.946 92.531 462.62 92.6586 462.374 92.9137C462.129 93.1689 462.006 93.5067 462.006 93.9272V96.2399C462.006 96.6101 462.133 96.9084 462.385 97.1348C462.638 97.3576 462.972 97.469 463.386 97.469C463.792 97.469 464.119 97.3486 464.364 97.1078C464.61 96.8634 464.732 96.5238 464.732 96.0889V95.9596H463.523V94.5364Z" stroke="white" stroke-width="2" mask="url(#path-58-outside-1_403_242)"/>
<path d="M469.228 91.0809V98.9191H467.667V91.0809H469.228Z" stroke="white" stroke-width="2" mask="url(#path-58-outside-1_403_242)"/>
<path d="M470.877 98.9137V91.0809H472.718L475.692 97.0863L475.56 97.2264V91.0809H477V98.9137H475.148L472.185 93L472.317 92.8598V98.9137H470.877Z" stroke="white" stroke-width="2" mask="url(#path-58-outside-1_403_242)"/>
<mask id="path-59-outside-2_403_242" maskUnits="userSpaceOnUse" x="145" y="40" width="334" height="46" fill="black">
<rect fill="white" x="145" y="40" width="334" height="46"/>
<path d="M165.134 70.1604L173.008 42.4245H183.269V83.5755H176.191V51.6226L176.475 53.434L168.574 78.9906H161.695L153.793 54L154.078 51.6226V83.5755H147V42.4245H157.261L165.134 70.1604Z"/>
<path d="M206.86 84C202.066 84 198.352 82.6698 195.718 80.0094C193.103 77.3302 191.796 73.5566 191.796 68.6887V42.4245H199.584V68.8868C199.584 71.2453 200.219 73.0755 201.488 74.3774C202.758 75.6792 204.549 76.3302 206.86 76.3302C209.191 76.3302 210.991 75.6792 212.261 74.3774C213.55 73.0755 214.194 71.2453 214.194 68.8868V42.4245H221.982V68.6887C221.982 73.5566 220.665 77.3302 218.031 80.0094C215.397 82.6698 211.674 84 206.86 84Z"/>
<path d="M229.941 83.5755V42.4245H237.729V83.5755H229.941ZM233.408 83.5755V76.1038H257.625V83.5755H233.408Z"/>
<path d="M267.176 83.5755V45.7925H274.964V83.5755H267.176ZM255.92 49.8962V42.4245H286.22V49.8962H255.92Z"/>
<path d="M298.271 42.4245V83.5755H290.199V42.4245H298.271Z"/>
<path d="M317.429 83.5755L303.672 42.4245H311.687L320.47 69.8774L329.253 42.4245H337.269L323.512 83.5755H317.429Z"/>
<path d="M342.385 83.5755V42.4245H350.173V83.5755H342.385ZM345.199 83.5755V76.1038H370.07V83.5755H345.199ZM345.199 66.8774V59.4057H366.943V66.8774H345.199ZM345.199 49.8962V42.4245H370.07V49.8962H345.199Z"/>
<path d="M380.274 67.0189V59.5472H394.656C395.869 59.5472 396.835 59.1038 397.556 58.217C398.295 57.3302 398.674 56.1604 398.692 54.7075C398.692 53.2547 398.323 52.0849 397.584 51.1981C396.864 50.3113 395.888 49.8679 394.656 49.8679H380.274V42.3962H395.282C397.574 42.3962 399.574 42.9057 401.279 43.9245C403.003 44.9434 404.339 46.3774 405.287 48.2264C406.234 50.0755 406.708 52.2358 406.708 54.7075C406.708 57.1792 406.225 59.3396 405.258 61.1887C404.311 63.0377 402.984 64.4717 401.279 65.4906C399.574 66.5094 397.574 67.0189 395.282 67.0189H380.274ZM377.176 83.5755V42.3962H384.964V83.5755H377.176ZM399.005 83.5755L388.972 65.7453L397.3 64.4434L408.442 83.5755H399.005Z"/>
<path d="M427.003 84C425.032 84 423.099 83.8019 421.204 83.4057C419.328 83.0094 417.566 82.434 415.917 81.6792C414.269 80.9057 412.781 79.9811 411.455 78.9057L415.065 72.5094C416.656 73.8113 418.494 74.8208 420.579 75.5377C422.663 76.2358 424.804 76.5849 427.003 76.5849C429.542 76.5849 431.512 76.1604 432.915 75.3113C434.317 74.4434 435.018 73.2264 435.018 71.6604V71.6321C435.018 70.4434 434.668 69.5377 433.966 68.9151C433.265 68.2736 432.337 67.8019 431.181 67.5C430.044 67.1981 428.803 66.9434 427.457 66.7358C425.847 66.4906 424.217 66.1887 422.568 65.8302C420.92 65.4528 419.404 64.8679 418.021 64.0755C416.637 63.2642 415.519 62.1132 414.667 60.6226C413.833 59.1321 413.416 57.1415 413.416 54.6509V54.6226C413.416 50.6038 414.742 47.5 417.395 45.3113C420.048 43.1038 423.8 42 428.651 42C430.887 42 433.161 42.3774 435.473 43.1321C437.785 43.8679 439.935 44.9245 441.925 46.3019L438.628 52.8679C437.036 51.7547 435.369 50.9057 433.625 50.3208C431.901 49.717 430.243 49.4151 428.651 49.4151C426.264 49.4151 424.416 49.8113 423.109 50.6038C421.801 51.3774 421.147 52.4717 421.147 53.8868V53.9151C421.147 55.2358 421.536 56.2358 422.313 56.9151C423.09 57.5943 424.103 58.1038 425.354 58.4434C426.605 58.7642 427.95 59.066 429.39 59.3491C430.982 59.6509 432.564 60.0283 434.137 60.4811C435.71 60.9151 437.15 61.5472 438.457 62.3774C439.765 63.2075 440.807 64.3491 441.584 65.8019C442.361 67.2547 442.749 69.1415 442.749 71.4623V71.5189C442.749 75.4811 441.376 78.5566 438.628 80.7453C435.88 82.9151 432.005 84 427.003 84Z"/>
<path d="M449.315 83.5755V42.4245H457.103V83.5755H449.315ZM452.129 83.5755V76.1038H477V83.5755H452.129ZM452.129 66.8774V59.4057H473.873V66.8774H452.129ZM452.129 49.8962V42.4245H477V49.8962H452.129Z"/>
</mask>
<path d="M165.134 70.1604L173.008 42.4245H183.269V83.5755H176.191V51.6226L176.475 53.434L168.574 78.9906H161.695L153.793 54L154.078 51.6226V83.5755H147V42.4245H157.261L165.134 70.1604Z" fill="black"/>
<path d="M206.86 84C202.066 84 198.352 82.6698 195.718 80.0094C193.103 77.3302 191.796 73.5566 191.796 68.6887V42.4245H199.584V68.8868C199.584 71.2453 200.219 73.0755 201.488 74.3774C202.758 75.6792 204.549 76.3302 206.86 76.3302C209.191 76.3302 210.991 75.6792 212.261 74.3774C213.55 73.0755 214.194 71.2453 214.194 68.8868V42.4245H221.982V68.6887C221.982 73.5566 220.665 77.3302 218.031 80.0094C215.397 82.6698 211.674 84 206.86 84Z" fill="black"/>
<path d="M229.941 83.5755V42.4245H237.729V83.5755H229.941ZM233.408 83.5755V76.1038H257.625V83.5755H233.408Z" fill="black"/>
<path d="M267.176 83.5755V45.7925H274.964V83.5755H267.176ZM255.92 49.8962V42.4245H286.22V49.8962H255.92Z" fill="black"/>
<path d="M298.271 42.4245V83.5755H290.199V42.4245H298.271Z" fill="black"/>
<path d="M317.429 83.5755L303.672 42.4245H311.687L320.47 69.8774L329.253 42.4245H337.269L323.512 83.5755H317.429Z" fill="black"/>
<path d="M342.385 83.5755V42.4245H350.173V83.5755H342.385ZM345.199 83.5755V76.1038H370.07V83.5755H345.199ZM345.199 66.8774V59.4057H366.943V66.8774H345.199ZM345.199 49.8962V42.4245H370.07V49.8962H345.199Z" fill="black"/>
<path d="M380.274 67.0189V59.5472H394.656C395.869 59.5472 396.835 59.1038 397.556 58.217C398.295 57.3302 398.674 56.1604 398.692 54.7075C398.692 53.2547 398.323 52.0849 397.584 51.1981C396.864 50.3113 395.888 49.8679 394.656 49.8679H380.274V42.3962H395.282C397.574 42.3962 399.574 42.9057 401.279 43.9245C403.003 44.9434 404.339 46.3774 405.287 48.2264C406.234 50.0755 406.708 52.2358 406.708 54.7075C406.708 57.1792 406.225 59.3396 405.258 61.1887C404.311 63.0377 402.984 64.4717 401.279 65.4906C399.574 66.5094 397.574 67.0189 395.282 67.0189H380.274ZM377.176 83.5755V42.3962H384.964V83.5755H377.176ZM399.005 83.5755L388.972 65.7453L397.3 64.4434L408.442 83.5755H399.005Z" fill="black"/>
<path d="M427.003 84C425.032 84 423.099 83.8019 421.204 83.4057C419.328 83.0094 417.566 82.434 415.917 81.6792C414.269 80.9057 412.781 79.9811 411.455 78.9057L415.065 72.5094C416.656 73.8113 418.494 74.8208 420.579 75.5377C422.663 76.2358 424.804 76.5849 427.003 76.5849C429.542 76.5849 431.512 76.1604 432.915 75.3113C434.317 74.4434 435.018 73.2264 435.018 71.6604V71.6321C435.018 70.4434 434.668 69.5377 433.966 68.9151C433.265 68.2736 432.337 67.8019 431.181 67.5C430.044 67.1981 428.803 66.9434 427.457 66.7358C425.847 66.4906 424.217 66.1887 422.568 65.8302C420.92 65.4528 419.404 64.8679 418.021 64.0755C416.637 63.2642 415.519 62.1132 414.667 60.6226C413.833 59.1321 413.416 57.1415 413.416 54.6509V54.6226C413.416 50.6038 414.742 47.5 417.395 45.3113C420.048 43.1038 423.8 42 428.651 42C430.887 42 433.161 42.3774 435.473 43.1321C437.785 43.8679 439.935 44.9245 441.925 46.3019L438.628 52.8679C437.036 51.7547 435.369 50.9057 433.625 50.3208C431.901 49.717 430.243 49.4151 428.651 49.4151C426.264 49.4151 424.416 49.8113 423.109 50.6038C421.801 51.3774 421.147 52.4717 421.147 53.8868V53.9151C421.147 55.2358 421.536 56.2358 422.313 56.9151C423.09 57.5943 424.103 58.1038 425.354 58.4434C426.605 58.7642 427.95 59.066 429.39 59.3491C430.982 59.6509 432.564 60.0283 434.137 60.4811C435.71 60.9151 437.15 61.5472 438.457 62.3774C439.765 63.2075 440.807 64.3491 441.584 65.8019C442.361 67.2547 442.749 69.1415 442.749 71.4623V71.5189C442.749 75.4811 441.376 78.5566 438.628 80.7453C435.88 82.9151 432.005 84 427.003 84Z" fill="black"/>
<path d="M449.315 83.5755V42.4245H457.103V83.5755H449.315ZM452.129 83.5755V76.1038H477V83.5755H452.129ZM452.129 66.8774V59.4057H473.873V66.8774H452.129ZM452.129 49.8962V42.4245H477V49.8962H452.129Z" fill="black"/>
<path d="M165.134 70.1604L173.008 42.4245H183.269V83.5755H176.191V51.6226L176.475 53.434L168.574 78.9906H161.695L153.793 54L154.078 51.6226V83.5755H147V42.4245H157.261L165.134 70.1604Z" stroke="white" stroke-width="4" mask="url(#path-59-outside-2_403_242)"/>
<path d="M206.86 84C202.066 84 198.352 82.6698 195.718 80.0094C193.103 77.3302 191.796 73.5566 191.796 68.6887V42.4245H199.584V68.8868C199.584 71.2453 200.219 73.0755 201.488 74.3774C202.758 75.6792 204.549 76.3302 206.86 76.3302C209.191 76.3302 210.991 75.6792 212.261 74.3774C213.55 73.0755 214.194 71.2453 214.194 68.8868V42.4245H221.982V68.6887C221.982 73.5566 220.665 77.3302 218.031 80.0094C215.397 82.6698 211.674 84 206.86 84Z" stroke="white" stroke-width="4" mask="url(#path-59-outside-2_403_242)"/>
<path d="M229.941 83.5755V42.4245H237.729V83.5755H229.941ZM233.408 83.5755V76.1038H257.625V83.5755H233.408Z" stroke="white" stroke-width="4" mask="url(#path-59-outside-2_403_242)"/>
<path d="M267.176 83.5755V45.7925H274.964V83.5755H267.176ZM255.92 49.8962V42.4245H286.22V49.8962H255.92Z" stroke="white" stroke-width="4" mask="url(#path-59-outside-2_403_242)"/>
<path d="M298.271 42.4245V83.5755H290.199V42.4245H298.271Z" stroke="white" stroke-width="4" mask="url(#path-59-outside-2_403_242)"/>
<path d="M317.429 83.5755L303.672 42.4245H311.687L320.47 69.8774L329.253 42.4245H337.269L323.512 83.5755H317.429Z" stroke="white" stroke-width="4" mask="url(#path-59-outside-2_403_242)"/>
<path d="M342.385 83.5755V42.4245H350.173V83.5755H342.385ZM345.199 83.5755V76.1038H370.07V83.5755H345.199ZM345.199 66.8774V59.4057H366.943V66.8774H345.199ZM345.199 49.8962V42.4245H370.07V49.8962H345.199Z" stroke="white" stroke-width="4" mask="url(#path-59-outside-2_403_242)"/>
<path d="M380.274 67.0189V59.5472H394.656C395.869 59.5472 396.835 59.1038 397.556 58.217C398.295 57.3302 398.674 56.1604 398.692 54.7075C398.692 53.2547 398.323 52.0849 397.584 51.1981C396.864 50.3113 395.888 49.8679 394.656 49.8679H380.274V42.3962H395.282C397.574 42.3962 399.574 42.9057 401.279 43.9245C403.003 44.9434 404.339 46.3774 405.287 48.2264C406.234 50.0755 406.708 52.2358 406.708 54.7075C406.708 57.1792 406.225 59.3396 405.258 61.1887C404.311 63.0377 402.984 64.4717 401.279 65.4906C399.574 66.5094 397.574 67.0189 395.282 67.0189H380.274ZM377.176 83.5755V42.3962H384.964V83.5755H377.176ZM399.005 83.5755L388.972 65.7453L397.3 64.4434L408.442 83.5755H399.005Z" stroke="white" stroke-width="4" mask="url(#path-59-outside-2_403_242)"/>
<path d="M427.003 84C425.032 84 423.099 83.8019 421.204 83.4057C419.328 83.0094 417.566 82.434 415.917 81.6792C414.269 80.9057 412.781 79.9811 411.455 78.9057L415.065 72.5094C416.656 73.8113 418.494 74.8208 420.579 75.5377C422.663 76.2358 424.804 76.5849 427.003 76.5849C429.542 76.5849 431.512 76.1604 432.915 75.3113C434.317 74.4434 435.018 73.2264 435.018 71.6604V71.6321C435.018 70.4434 434.668 69.5377 433.966 68.9151C433.265 68.2736 432.337 67.8019 431.181 67.5C430.044 67.1981 428.803 66.9434 427.457 66.7358C425.847 66.4906 424.217 66.1887 422.568 65.8302C420.92 65.4528 419.404 64.8679 418.021 64.0755C416.637 63.2642 415.519 62.1132 414.667 60.6226C413.833 59.1321 413.416 57.1415 413.416 54.6509V54.6226C413.416 50.6038 414.742 47.5 417.395 45.3113C420.048 43.1038 423.8 42 428.651 42C430.887 42 433.161 42.3774 435.473 43.1321C437.785 43.8679 439.935 44.9245 441.925 46.3019L438.628 52.8679C437.036 51.7547 435.369 50.9057 433.625 50.3208C431.901 49.717 430.243 49.4151 428.651 49.4151C426.264 49.4151 424.416 49.8113 423.109 50.6038C421.801 51.3774 421.147 52.4717 421.147 53.8868V53.9151C421.147 55.2358 421.536 56.2358 422.313 56.9151C423.09 57.5943 424.103 58.1038 425.354 58.4434C426.605 58.7642 427.95 59.066 429.39 59.3491C430.982 59.6509 432.564 60.0283 434.137 60.4811C435.71 60.9151 437.15 61.5472 438.457 62.3774C439.765 63.2075 440.807 64.3491 441.584 65.8019C442.361 67.2547 442.749 69.1415 442.749 71.4623V71.5189C442.749 75.4811 441.376 78.5566 438.628 80.7453C435.88 82.9151 432.005 84 427.003 84Z" stroke="white" stroke-width="4" mask="url(#path-59-outside-2_403_242)"/>
<path d="M449.315 83.5755V42.4245H457.103V83.5755H449.315ZM452.129 83.5755V76.1038H477V83.5755H452.129ZM452.129 66.8774V59.4057H473.873V66.8774H452.129ZM452.129 49.8962V42.4245H477V49.8962H452.129Z" stroke="white" stroke-width="4" mask="url(#path-59-outside-2_403_242)"/>
<defs>
<filter id="filter0_di_403_242" x="97" y="77" width="52" height="53" filterUnits="userSpaceOnUse" color-interpolation-filters="sRGB">
<feFlood flood-opacity="0" result="BackgroundImageFix"/>
<feColorMatrix in="SourceAlpha" type="matrix" values="0 0 0 0 0 0 0 0 0 0 0 0 0 0 0 0 0 0 127 0" result="hardAlpha"/>
<feOffset dy="4"/>
<feGaussianBlur stdDeviation="2"/>
<feComposite in2="hardAlpha" operator="out"/>
<feColorMatrix type="matrix" values="0 0 0 0 0 0 0 0 0 0 0 0 0 0 0 0 0 0 0.25 0"/>
<feBlend mode="normal" in2="BackgroundImageFix" result="effect1_dropShadow_403_242"/>
<feBlend mode="normal" in="SourceGraphic" in2="effect1_dropShadow_403_242" result="shape"/>
<feColorMatrix in="SourceAlpha" type="matrix" values="0 0 0 0 0 0 0 0 0 0 0 0 0 0 0 0 0 0 127 0" result="hardAlpha"/>
<feOffset dx="-1" dy="-1"/>
<feGaussianBlur stdDeviation="2"/>
<feComposite in2="hardAlpha" operator="arithmetic" k2="-1" k3="1"/>
<feColorMatrix type="matrix" values="0 0 0 0 0 0 0 0 0 0 0 0 0 0 0 0 0 0 0.5 0"/>
<feBlend mode="normal" in2="shape" result="effect2_innerShadow_403_242"/>
</filter>
<filter id="filter1_di_403_242" x="16" y="-1" width="131" height="131" filterUnits="userSpaceOnUse" color-interpolation-filters="sRGB">
<feFlood flood-opacity="0" result="BackgroundImageFix"/>
<feColorMatrix in="SourceAlpha" type="matrix" values="0 0 0 0 0 0 0 0 0 0 0 0 0 0 0 0 0 0 127 0" result="hardAlpha"/>
<feOffset dx="4" dy="4"/>
<feGaussianBlur stdDeviation="2"/>
<feComposite in2="hardAlpha" operator="out"/>
<feColorMatrix type="matrix" values="0 0 0 0 0 0 0 0 0 0 0 0 0 0 0 0 0 0 0.25 0"/>
<feBlend mode="normal" in2="BackgroundImageFix" result="effect1_dropShadow_403_242"/>
<feBlend mode="normal" in="SourceGraphic" in2="effect1_dropShadow_403_242" result="shape"/>
<feColorMatrix in="SourceAlpha" type="matrix" values="0 0 0 0 0 0 0 0 0 0 0 0 0 0 0 0 0 0 127 0" result="hardAlpha"/>
<feOffset dx="-1" dy="-1"/>
<feGaussianBlur stdDeviation="2"/>
<feComposite in2="hardAlpha" operator="arithmetic" k2="-1" k3="1"/>
<feColorMatrix type="matrix" values="0 0 0 0 0 0 0 0 0 0 0 0 0 0 0 0 0 0 0.5 0"/>
<feBlend mode="normal" in2="shape" result="effect2_innerShadow_403_242"/>
</filter>
<filter id="filter2_di_403_242" x="0" y="25" width="64" height="65" filterUnits="userSpaceOnUse" color-interpolation-filters="sRGB">
<feFlood flood-opacity="0" result="BackgroundImageFix"/>
<feColorMatrix in="SourceAlpha" type="matrix" values="0 0 0 0 0 0 0 0 0 0 0 0 0 0 0 0 0 0 127 0" result="hardAlpha"/>
<feOffset dy="4"/>
<feGaussianBlur stdDeviation="2"/>
<feComposite in2="hardAlpha" operator="out"/>
<feColorMatrix type="matrix" values="0 0 0 0 0 0 0 0 0 0 0 0 0 0 0 0 0 0 0.25 0"/>
<feBlend mode="normal" in2="BackgroundImageFix" result="effect1_dropShadow_403_242"/>
<feBlend mode="normal" in="SourceGraphic" in2="effect1_dropShadow_403_242" result="shape"/>
<feColorMatrix in="SourceAlpha" type="matrix" values="0 0 0 0 0 0 0 0 0 0 0 0 0 0 0 0 0 0 127 0" result="hardAlpha"/>
<feOffset dx="-1" dy="-1"/>
<feGaussianBlur stdDeviation="2"/>
<feComposite in2="hardAlpha" operator="arithmetic" k2="-1" k3="1"/>
<feColorMatrix type="matrix" values="0 0 0 0 0 0 0 0 0 0 0 0 0 0 0 0 0 0 0.5 0"/>
<feBlend mode="normal" in2="shape" result="effect2_innerShadow_403_242"/>
</filter>
<radialGradient id="paint0_radial_403_242" cx="0" cy="0" r="1" gradientUnits="userSpaceOnUse" gradientTransform="translate(111.644 84.4068) rotate(54.2215) scale(38.6242)">
<stop stop-color="white" stop-opacity="0.85"/>
<stop offset="1" stop-opacity="0.55"/>
</radialGradient>
<radialGradient id="paint1_radial_403_242" cx="0" cy="0" r="1" gradientUnits="userSpaceOnUse" gradientTransform="translate(44.5 15) rotate(54.2215) scale(113.941)">
<stop stop-color="white" stop-opacity="0.75"/>
<stop offset="1" stop-color="#2C2C2C" stop-opacity="0.45"/>
</radialGradient>
<radialGradient id="paint2_radial_403_242" cx="0" cy="0" r="1" gradientUnits="userSpaceOnUse" gradientTransform="translate(17.2373 33.7288) rotate(54.2215) scale(50.2114)">
<stop stop-color="white" stop-opacity="0.65"/>
<stop offset="1" stop-opacity="0.55"/>
</radialGradient>
</defs>
</svg>
